# xmcd
#
# Track frame offsets: 
#        150
#        1650
#        30585
#        47495
#        64522
#        80837
#        96645
#        114772
#        169287
#        172747
#        185472
#        206500
#        219090
#        233210
#        247050
#        283640
#
# Disc length: 4210 seconds
#
# Revision: 1
# Processed by: cddbd v1.5.2PL0 Copyright (c) Steve Scherf et al.
# Submitted via: ExactAudioCopyFreeDBPlugin 1.0
#
DISCID=ce107010
DTITLE=Hacienda Brothers - Music For Ranch and Town
DYEAR=2007
DGENRE=Country
TTITLE0=Intro
TTITLE1=Railed
TTITLE2=Mental Revenge
TTITLE3=Turn to Grey
TTITLE4=Leavin' on My Mind
TTITLE5=Walkin' on My Dreams
TTITLE6=Cry Like a Baby
TTITLE7=Since I Met You Baby
TTITLE8=Band Intro
TTITLE9=Home of the Blues
TTITLE10=No Time to Waste
TTITLE11=Seven Little Numbers
TTITLE12=If I'm Gonna Sink
TTITLE13=Brotherized
TTITLE14=Cowboys to Girls
TTITLE15=Gone
EXTD=
EXTT0=
EXTT1=
EXTT2=
EXTT3=
EXTT4=
EXTT5=
EXTT6=
EXTT7=
EXTT8=
EXTT9=
EXTT10=
EXTT11=
EXTT12=
EXTT13=
EXTT14=
EXTT15=
PLAYORDER=
